<svg xmlns="http://www.w3.org/2000/svg" viewBox="0 0 512 512"><path fill="#22acdd" d="M0 387.864h512v24.896H0z"/><path d="M0 103.416c13.44-2.256 31.056-4.176 53.472-4.176 27.552 0 47.744 6.4 60.528 17.92 11.888 10.256 18.896 25.952 18.896 45.168 0 19.52-5.76 34.88-16.64 46.096C101.52 224.12 77.52 232.12 50.288 232.12c-8.336 0-16.016-.32-22.416-1.904v86.48H0v-213.28zm27.856 104.048c6.08 1.6 13.76 2.256 23.04 2.256 33.632 0 54.128-16.336 54.128-46.144 0-28.496-20.144-42.24-50.896-42.24-12.192 0-21.472.944-26.272 2.224v83.904zM198.208 100.84v90.288h104.4V100.84h28.176v215.856h-28.176v-101.2h-104.4v101.2h-27.856V100.84h27.856zm180.896 2.576c13.44-2.256 31.056-4.176 53.472-4.176 27.552 0 47.744 6.4 60.528 17.92C504.976 127.416 512 143.128 512 162.344c0 19.52-5.76 34.88-16.64 46.096-14.736 15.696-38.736 23.696-65.968 23.696-8.336 0-16.016-.32-22.416-1.904v86.48H379.12V103.416h-.016zm27.872 104.048c6.08 1.6 13.76 2.256 23.04 2.256 33.632 0 54.128-16.336 54.128-46.144 0-28.496-20.144-42.24-50.896-42.24-12.192 0-21.472.944-26.272 2.224v83.904z" fill="#f60"/></svg>